<svg viewBox="0 0 1129.4000244140625 400" xmlns="http://www.w3.org/2000/svg"><g><g><g><g><g><line x1="63.96500110626221" y1="376.6879997253418" x2="58.96500110626221" y2="376.6879997253418" style="visibility: inherit;" fill="rgb(0, 0, 0)" stroke="rgb(204, 204, 204)" stroke-width="1px"></line><line x1="63.96500110626221" y1="342.4436361139471" x2="58.96500110626221" y2="342.4436361139471" style="visibility: inherit;" fill="rgb(0, 0, 0)" stroke="rgb(204, 204, 204)" stroke-width="1px"></line><line x1="63.96500110626221" y1="308.1992725025524" x2="58.96500110626221" y2="308.1992725025524" style="visibility: inherit;" fill="rgb(0, 0, 0)" stroke="rgb(204, 204, 204)" stroke-width="1px"></line><line x1="63.96500110626221" y1="273.95490889115763" x2="58.96500110626221" y2="273.95490889115763" style="visibility: inherit;" fill="rgb(0, 0, 0)" stroke="rgb(204, 204, 204)" stroke-width="1px"></line><line x1="63.96500110626221" y1="239.71054527976295" x2="58.96500110626221" y2="239.71054527976295" style="visibility: inherit;" fill="rgb(0, 0, 0)" stroke="rgb(204, 204, 204)" stroke-width="1px"></line><line x1="63.96500110626221" y1="205.46618166836825" x2="58.96500110626221" y2="205.46618166836825" style="visibility: inherit;" fill="rgb(0, 0, 0)" stroke="rgb(204, 204, 204)" stroke-width="1px"></line><line x1="63.96500110626221" y1="171.22181805697355" x2="58.96500110626221" y2="171.22181805697355" style="visibility: inherit;" fill="rgb(0, 0, 0)" stroke="rgb(204, 204, 204)" stroke-width="1px"></line><line x1="63.96500110626221" y1="136.97745444557887" x2="58.96500110626221" y2="136.97745444557887" style="visibility: inherit;" fill="rgb(0, 0, 0)" stroke="rgb(204, 204, 204)" stroke-width="1px"></line><line x1="63.96500110626221" y1="102.73309083418417" x2="58.96500110626221" y2="102.73309083418417" style="visibility: inherit;" fill="rgb(0, 0, 0)" stroke="rgb(204, 204, 204)" stroke-width="1px"></line><line x1="63.96500110626221" y1="68.48872722278946" x2="58.96500110626221" y2="68.48872722278946" style="visibility: inherit;" fill="rgb(0, 0, 0)" stroke="rgb(204, 204, 204)" stroke-width="1px"></line><line x1="63.96500110626221" y1="34.244363611394704" x2="58.96500110626221" y2="34.244363611394704" style="visibility: inherit;" fill="rgb(0, 0, 0)" stroke="rgb(204, 204, 204)" stroke-width="1px"></line><line x1="63.96500110626221" y1="0" x2="58.96500110626221" y2="0" style="visibility: inherit;" fill="rgb(0, 0, 0)" stroke="rgb(204, 204, 204)" stroke-width="1px"></line></g><g transform="translate(53.96500110626221, 0)"><text style="text-anchor: end; visibility: hidden; font-family: &quot;Helvetica Neue&quot;, sans-serif; font-size: 12px; font-weight: 200;" x="0" y="376.6879997253418" dx="0em" dy="0.3em" fill="rgb(50, 49, 63)" stroke="none" stroke-width="1px">-0.05</text><text style="text-anchor: end; visibility: inherit; font-family: &quot;Helvetica Neue&quot;, sans-serif; font-size: 12px; font-weight: 200;" x="0" y="342.4436361139471" dx="0em" dy="0.3em" fill="rgb(50, 49, 63)" stroke="none" stroke-width="1px">0</text><text style="text-anchor: end; visibility: inherit; font-family: &quot;Helvetica Neue&quot;, sans-serif; font-size: 12px; font-weight: 200;" x="0" y="308.1992725025524" dx="0em" dy="0.3em" fill="rgb(50, 49, 63)" stroke="none" stroke-width="1px">0.05</text><text style="text-anchor: end; visibility: inherit; font-family: &quot;Helvetica Neue&quot;, sans-serif; font-size: 12px; font-weight: 200;" x="0" y="273.95490889115763" dx="0em" dy="0.3em" fill="rgb(50, 49, 63)" stroke="none" stroke-width="1px">0.1</text><text style="text-anchor: end; visibility: inherit; font-family: &quot;Helvetica Neue&quot;, sans-serif; font-size: 12px; font-weight: 200;" x="0" y="239.71054527976295" dx="0em" dy="0.3em" fill="rgb(50, 49, 63)" stroke="none" stroke-width="1px">0.15</text><text style="text-anchor: end; visibility: inherit; font-family: &quot;Helvetica Neue&quot;, sans-serif; font-size: 12px; font-weight: 200;" x="0" y="205.46618166836825" dx="0em" dy="0.3em" fill="rgb(50, 49, 63)" stroke="none" stroke-width="1px">0.2</text><text style="text-anchor: end; visibility: inherit; font-family: &quot;Helvetica Neue&quot;, sans-serif; font-size: 12px; font-weight: 200;" x="0" y="171.22181805697355" dx="0em" dy="0.3em" fill="rgb(50, 49, 63)" stroke="none" stroke-width="1px">0.25</text><text style="text-anchor: end; visibility: inherit; font-family: &quot;Helvetica Neue&quot;, sans-serif; font-size: 12px; font-weight: 200;" x="0" y="136.97745444557887" dx="0em" dy="0.3em" fill="rgb(50, 49, 63)" stroke="none" stroke-width="1px">0.3</text><text style="text-anchor: end; visibility: inherit; font-family: &quot;Helvetica Neue&quot;, sans-serif; font-size: 12px; font-weight: 200;" x="0" y="102.73309083418417" dx="0em" dy="0.3em" fill="rgb(50, 49, 63)" stroke="none" stroke-width="1px">0.35</text><text style="text-anchor: end; visibility: inherit; font-family: &quot;Helvetica Neue&quot;, sans-serif; font-size: 12px; font-weight: 200;" x="0" y="68.48872722278946" dx="0em" dy="0.3em" fill="rgb(50, 49, 63)" stroke="none" stroke-width="1px">0.4</text><text style="text-anchor: end; visibility: inherit; font-family: &quot;Helvetica Neue&quot;, sans-serif; font-size: 12px; font-weight: 200;" x="0" y="34.244363611394704" dx="0em" dy="0.3em" fill="rgb(50, 49, 63)" stroke="none" stroke-width="1px">0.45</text><text style="text-anchor: end; visibility: hidden; font-family: &quot;Helvetica Neue&quot;, sans-serif; font-size: 12px; font-weight: 200;" x="0" y="0" dx="0em" dy="0.3em" fill="rgb(50, 49, 63)" stroke="none" stroke-width="1px">0.5</text></g><line x1="63.96500110626221" y1="0" x2="63.96500110626221" y2="376.6879997253418" fill="rgb(0, 0, 0)" stroke="rgb(204, 204, 204)" stroke-width="1px"></line></g></g><g transform="translate(63, 0)" clip-path="url(#clip_0)"><clipPath id="clip_0"><rect width="1065" height="376"></rect></clipPath><g><g><g><line x1="0" y1="0" x2="0" y2="376.6879997253418" fill="rgb(0, 0, 0)" stroke="rgb(60, 60, 60)" stroke-width="1px" opacity="0.25"></line><line x1="133.17937486171724" y1="0" x2="133.17937486171724" y2="376.6879997253418" fill="rgb(0, 0, 0)" stroke="rgb(60, 60, 60)" stroke-width="1px" opacity="0.25"></line><line x1="266.35874972343447" y1="0" x2="266.35874972343447" y2="376.6879997253418" fill="rgb(0, 0, 0)" stroke="rgb(60, 60, 60)" stroke-width="1px" opacity="0.25"></line><line x1="399.5381245851517" y1="0" x2="399.5381245851517" y2="376.6879997253418" fill="rgb(0, 0, 0)" stroke="rgb(60, 60, 60)" stroke-width="1px" opacity="0.25"></line><line x1="532.7174994468689" y1="0" x2="532.7174994468689" y2="376.6879997253418" fill="rgb(0, 0, 0)" stroke="rgb(60, 60, 60)" stroke-width="1px" opacity="0.25"></line><line x1="665.8968743085861" y1="0" x2="665.8968743085861" y2="376.6879997253418" fill="rgb(0, 0, 0)" stroke="rgb(60, 60, 60)" stroke-width="1px" opacity="0.25"></line><line x1="799.0762491703034" y1="0" x2="799.0762491703034" y2="376.6879997253418" fill="rgb(0, 0, 0)" stroke="rgb(60, 60, 60)" stroke-width="1px" opacity="0.25"></line><line x1="932.2556240320207" y1="0" x2="932.2556240320207" y2="376.6879997253418" fill="rgb(0, 0, 0)" stroke="rgb(60, 60, 60)" stroke-width="1px" opacity="0.25"></line><line x1="1065.4349988937379" y1="0" x2="1065.4349988937379" y2="376.6879997253418" fill="rgb(0, 0, 0)" stroke="rgb(60, 60, 60)" stroke-width="1px" opacity="0.25"></line></g><g><line x1="0" y1="376.6879997253418" x2="1065.4349988937379" y2="376.6879997253418" fill="rgb(0, 0, 0)" stroke="rgb(60, 60, 60)" stroke-width="1px" opacity="0.25"></line><line x1="0" y1="342.4436361139471" x2="1065.4349988937379" y2="342.4436361139471" fill="rgb(0, 0, 0)" stroke="rgb(60, 60, 60)" stroke-width="1px" opacity="0.25"></line><line x1="0" y1="308.1992725025524" x2="1065.4349988937379" y2="308.1992725025524" fill="rgb(0, 0, 0)" stroke="rgb(60, 60, 60)" stroke-width="1px" opacity="0.25"></line><line x1="0" y1="273.95490889115763" x2="1065.4349988937379" y2="273.95490889115763" fill="rgb(0, 0, 0)" stroke="rgb(60, 60, 60)" stroke-width="1px" opacity="0.25"></line><line x1="0" y1="239.71054527976295" x2="1065.4349988937379" y2="239.71054527976295" fill="rgb(0, 0, 0)" stroke="rgb(60, 60, 60)" stroke-width="1px" opacity="0.25"></line><line x1="0" y1="205.46618166836825" x2="1065.4349988937379" y2="205.46618166836825" fill="rgb(0, 0, 0)" stroke="rgb(60, 60, 60)" stroke-width="1px" opacity="0.25"></line><line x1="0" y1="171.22181805697355" x2="1065.4349988937379" y2="171.22181805697355" fill="rgb(0, 0, 0)" stroke="rgb(60, 60, 60)" stroke-width="1px" opacity="0.25"></line><line x1="0" y1="136.97745444557887" x2="1065.4349988937379" y2="136.97745444557887" fill="rgb(0, 0, 0)" stroke="rgb(60, 60, 60)" stroke-width="1px" opacity="0.25"></line><line x1="0" y1="102.73309083418417" x2="1065.4349988937379" y2="102.73309083418417" fill="rgb(0, 0, 0)" stroke="rgb(60, 60, 60)" stroke-width="1px" opacity="0.25"></line><line x1="0" y1="68.48872722278946" x2="1065.4349988937379" y2="68.48872722278946" fill="rgb(0, 0, 0)" stroke="rgb(60, 60, 60)" stroke-width="1px" opacity="0.25"></line><line x1="0" y1="34.244363611394704" x2="1065.4349988937379" y2="34.244363611394704" fill="rgb(0, 0, 0)" stroke="rgb(60, 60, 60)" stroke-width="1px" opacity="0.25"></line><line x1="0" y1="0" x2="1065.4349988937379" y2="0" fill="rgb(0, 0, 0)" stroke="rgb(60, 60, 60)" stroke-width="1px" opacity="0.25"></line></g></g></g><g><g><line x1="0" y1="342.4436361139471" x2="1065.4349988937379" y2="342.4436361139471" fill="rgb(0, 0, 0)" stroke="rgb(153, 153, 153)" stroke-width="1.5px"></line></g></g><g><g><line x1="133.17937486171724" y1="0" x2="133.17937486171724" y2="376.6879997253418" fill="rgb(0, 0, 0)" stroke="rgb(153, 153, 153)" stroke-width="1.5px"></line></g></g><g><g><g><g><g><path style="fill: none;" stroke="rgb(255, 112, 67)" stroke-width="2px" d="M173.13318732023242,-5.720037840353882L179.7921560633183,22.17657033747463L186.45112480640412,51.06825966602548L193.11009354949,65.52990177195574L199.76906229257585,77.52804210966946L206.42803103566172,92.56880455889643L213.08699977874758,111.12106000504406L219.74596852183342,120.60346804793079L226.40493726491928,126.53304067893797L233.06390600800518,136.09502173386653L239.72287475109104,133.8275050098455L246.3818434941769,138.03392609514805L253.04081223726274,151.86575885836942L259.6997809803486,151.67340262781036L266.35874972343447,162.80534304187697L273.0177184665203,158.51667198961445L279.6766872096062,168.30702002565653L286.33565595269204,170.13812715088207L292.99462469577793,154.2496299781308L299.65359343886377,170.65303781883273L306.3125621819496,183.00832452999003L312.9715309250355,185.40271131361106L319.63049966812133,184.31759387507574L326.2894684112072,191.46009000056696L332.94843715429306,195.36740253245094L339.60740589737895,189.54867570072415L346.26637464046485,189.69955109803388L352.9253433835507,184.9410737721951L359.5843121266366,188.0052039422347L366.2432808697224,197.77673985185183L372.90224961280825,199.0740402887177L379.56121835589414,202.83399525309812L386.22018709898,195.06584512288057L392.87915584206587,197.50330774972082L399.5381245851517,201.63368838037536L406.19709332823754,184.22498466892068L412.85606207132344,185.05408567615797L419.5150308144093,192.29795217406763L426.17399955749516,198.09185292352544L432.832968300581,191.60328737899718L439.49193704366684,198.3426850100389L446.15090578675273,192.44122465433819L452.80987452983857,196.73848169642025L459.46884327292446,200.18661972041684L466.12781201601035,203.3317867605132L472.7867807590962,211.55087548316462L479.4457495021821,211.47381261922368L486.1047182452679,213.74742972167743L492.7636869883538,207.5253249930402L499.42265573143965,202.92727910872927L506.0816244745255,219.53432573624212L512.7405932176114,225.00336375311517L519.3995619606972,226.85744548838153L526.058530703783,214.35442757474596L532.7174994468689,217.40410894828483L539.3764681899548,217.5387364383682L546.0354369330406,220.4481707622414L552.6944056761266,226.36053520661423L559.3533744192124,224.70408188110628L566.0123431622983,240.04950258653307L572.6713119053841,230.33216350761316L579.33028064847,217.46729454349116L585.9892493915559,228.2431041363073L592.6482181346418,231.22644608131594L599.3071868777275,230.5795665918047L605.9661556208134,233.42952969853653L612.6251243638992,231.1136085504312L619.2840931069852,224.28157657570117L625.943061850071,231.87891550548983L632.6020305931569,226.81085149679416L639.2609993362427,223.90467006661788L645.9199680793286,228.59730825041112L652.5789368224144,226.23383514355325L659.2379055655003,234.98350000623887L665.8968743085861,226.76543782922516L672.555843051672,237.49637505917428L679.2148117947579,231.09134972915973L685.8737805378438,236.0109087802717L692.5327492809297,234.06437325587L699.1917180240155,227.04416820033737L705.8506867671014,221.20150212021497L712.5096555101871,223.43472426055968L719.1686242532732,232.50170471479993L725.8275929963589,234.11490142408334L732.4865617394448,234.58116445384078L739.1455304825306,232.2620949061544L745.8044992256165,231.74609088740615L752.4634679687024,238.54162175788616L759.1224367117883,236.62274511197631L765.7814054548741,239.46275375751478L772.44037419796,240.54517980072654L779.0993429410457,250.53690905553265L785.7583116841317,257.1065493037225L792.4172804272175,254.54341487923156L799.0762491703034,249.9607704423485L805.7352179133893,249.0470434025289L812.3941866564751,252.6136930358199L819.0531553995611,251.31042444183674L825.7121241426469,248.49491680588383L832.3710928857328,253.2241423024214L839.0300616288185,252.16715547837293L845.6890303719044,247.04670129687875L852.3479991149903,247.51189519994125L859.0069678580762,245.77505546133813L865.665936601162,255.29239391448124L872.3249053442479,257.00545328679203L878.9838740873337,248.04387107000227L885.6428428304197,249.62867428636457L892.3018115735055,252.07788347120547L898.9607803165914,251.05220943780898L905.6197490596771,252.18986443924592L912.278717802763,244.6782135149194L918.9376865458489,256.1046281213139L925.5966552889348,255.80132527982283L932.2556240320207,257.38523349638945L938.9145927751065,261.8477185825086L945.5735615181924,258.45502783481606L952.2325302612783,258.2079556921433L958.8914990043642,257.77055669852416L965.5504677474499,252.72181623875036L972.2094364905358,255.77524951804344L978.8684052336216,262.672005456103L985.5273739767076,250.5653560462336L992.1863427197934,254.63610686466757L998.8453114628793,258.16220595369543L1005.5042802059651,255.6812928616842L1012.163248949051,251.02145200154598" fill="none"></path></g></g></g></g><g opacity="0.2"><g><g><g><path style="fill: none;" stroke="rgb(255, 112, 67)" stroke-width="2px" d="M166.47421857714653,-4.877182070903984L173.13318732023242,35.66578951142452L179.7921560633183,62.06916637750021L186.45112480640412,93.19262006727024L193.11009354949,86.85801484884018L199.76906229257585,95.34388219990683L206.42803103566172,114.99352962432238L213.08699977874758,138.8484826193952L219.74596852183342,134.7961184047652L226.40493726491928,135.41578297538186L233.06390600800518,150.42675356647229L239.72287475109104,130.42782915228787L246.3818434941769,144.34177770667208L253.04081223726274,172.6099961023613L259.6997809803486,151.38489758550745L266.35874972343447,179.5022361595293L273.0177184665203,152.08390061213348L279.6766872096062,182.99221992414732L286.33565595269204,172.88475168670433L292.99462469577793,130.41707243340008L299.65359343886377,195.2580329914832L306.3125621819496,201.54120190707206L312.9715309250355,188.9942853624631L319.63049966812133,182.68991938318354L326.2894684112072,202.17382760955545L332.94843715429306,201.22836917076467L339.60740589737895,180.82058738268708L346.26637464046485,189.9258641639793L352.9253433835507,177.8033583515036L359.5843121266366,192.60139897781673L366.2432808697224,212.4340432963284L372.90224961280825,201.0199909105642L379.56121835589414,208.4739276414962L386.22018709898,183.41361999966583L392.87915584206587,201.15950167640514L399.5381245851517,207.82925931255394L406.19709332823754,158.11192913664524L412.85606207132344,186.29773718601658L419.5150308144093,203.16375191570316L426.17399955749516,206.7827040452028L432.832968300581,181.87043906389096L439.49193704366684,208.4517814555507L446.15090578675273,183.58903412133913L452.80987452983857,203.1843672593022L459.46884327292446,205.35882675629554L466.12781201601035,208.04953732059425L472.7867807590962,223.87950856704205L479.4457495021821,211.35821832331288L486.1047182452679,217.15785537534813L492.7636869883538,198.19216790010069L499.42265573143965,196.03021028227008L506.0816244745255,244.44489567749574L512.7405932176114,233.20692077842165L519.3995619606972,229.63856809128043L526.058530703783,195.59990070429518L532.7174994468689,221.9786310085928L539.3764681899548,217.7406776734933L546.0354369330406,224.8123222480511L552.6944056761266,235.22908187317327L559.3533744192124,222.2194018928444L566.0123431622983,263.06763364467304L572.6713119053841,215.75615488923333L579.33028064847,198.16999109730827L585.9892493915559,244.4068185255314L592.6482181346418,235.701458998829L599.3071868777275,229.60924735753784L605.9661556208134,237.7044743586342L612.6251243638992,227.6397268282732L619.2840931069852,214.03352861360617L625.943061850071,243.27492390017278L632.6020305931569,219.2087554837507L639.2609993362427,219.54539792135344L645.9199680793286,235.636265526101L652.5789368224144,222.6886254832664L659.2379055655003,248.10799730026733L665.8968743085861,214.43834456370467L672.555843051672,253.59278090409788L679.2148117947579,221.48381173413793L685.8737805378438,243.3902473569396L692.5327492809297,231.1445699692675L699.1917180240155,216.51386061703835L705.8506867671014,212.43750300003143L712.5096555101871,226.78455747107677L719.1686242532732,246.10217539616028L725.8275929963589,236.53469648800848L732.4865617394448,235.28055899847698L739.1455304825306,228.78349058462476L745.8044992256165,230.9720848592838L752.4634679687024,248.73491806360624L759.1224367117883,233.74443014311152L765.7814054548741,243.7227667258225L772.44037419796,242.1688188655442L779.0993429410457,265.52450293774183L785.7583116841317,266.96100967600734L792.4172804272175,250.6987132424951L799.0762491703034,243.08680378702383L805.7352179133893,247.67645284279962L812.3941866564751,257.96366748575633L819.0531553995611,249.35552155086208L825.7121241426469,244.27165535195442L832.3710928857328,260.31798054722776L839.0300616288185,250.58167524230026L845.6890303719044,239.36602002463755L852.3479991149903,248.209686054535L859.0069678580762,243.16979585343338L865.665936601162,269.5684015941959L872.3249053442479,259.5750423452583L878.9838740873337,234.60149774481755L885.6428428304197,252.00587911090804L892.3018115735055,255.75169724846683L898.9607803165914,249.51369838771421L905.6197490596771,253.89634694140136L912.278717802763,233.41073712842962L918.9376865458489,273.24425003090573L925.5966552889348,255.34637101758614L932.2556240320207,259.7610958212395L938.9145927751065,268.5414462116873L945.5735615181924,253.3659917132773L952.2325302612783,257.83734747813406L958.8914990043642,257.11445820809547L965.5504677474499,245.14870554908964L972.2094364905358,260.35539943698313L978.8684052336216,273.01713936319237L985.5273739767076,232.40538193142956L992.1863427197934,260.7422330923185L998.8453114628793,263.45135458723735L1005.5042802059651,251.95992322366726L1012.163248949051,244.03169071133863" fill="none"></path></g></g></g></g></g></g><g transform="translate(63, 376)" clip-path="url(#clip_1)"><clipPath id="clip_1"><rect width="1065" height="23"></rect></clipPath><g><g><line x1="0" y1="0" x2="0" y2="5" style="visibility: inherit;" fill="rgb(0, 0, 0)" stroke="rgb(204, 204, 204)" stroke-width="1px"></line><line x1="133.17937486171724" y1="0" x2="133.17937486171724" y2="5" style="visibility: inherit;" fill="rgb(0, 0, 0)" stroke="rgb(204, 204, 204)" stroke-width="1px"></line><line x1="266.35874972343447" y1="0" x2="266.35874972343447" y2="5" style="visibility: inherit;" fill="rgb(0, 0, 0)" stroke="rgb(204, 204, 204)" stroke-width="1px"></line><line x1="399.5381245851517" y1="0" x2="399.5381245851517" y2="5" style="visibility: inherit;" fill="rgb(0, 0, 0)" stroke="rgb(204, 204, 204)" stroke-width="1px"></line><line x1="532.7174994468689" y1="0" x2="532.7174994468689" y2="5" style="visibility: inherit;" fill="rgb(0, 0, 0)" stroke="rgb(204, 204, 204)" stroke-width="1px"></line><line x1="665.8968743085861" y1="0" x2="665.8968743085861" y2="5" style="visibility: inherit;" fill="rgb(0, 0, 0)" stroke="rgb(204, 204, 204)" stroke-width="1px"></line><line x1="799.0762491703034" y1="0" x2="799.0762491703034" y2="5" style="visibility: inherit;" fill="rgb(0, 0, 0)" stroke="rgb(204, 204, 204)" stroke-width="1px"></line><line x1="932.2556240320207" y1="0" x2="932.2556240320207" y2="5" style="visibility: inherit;" fill="rgb(0, 0, 0)" stroke="rgb(204, 204, 204)" stroke-width="1px"></line><line x1="1065.4349988937379" y1="0" x2="1065.4349988937379" y2="5" style="visibility: inherit;" fill="rgb(0, 0, 0)" stroke="rgb(204, 204, 204)" stroke-width="1px"></line></g><g transform="translate(0, 8)"><text style="text-anchor: middle; visibility: hidden; font-family: &quot;Helvetica Neue&quot;, sans-serif; font-size: 12px; font-weight: 200;" x="0" y="0" dx="0em" dy="0.95em" fill="rgb(50, 49, 63)" stroke="none" stroke-width="1px">-20</text><text style="text-anchor: middle; visibility: inherit; font-family: &quot;Helvetica Neue&quot;, sans-serif; font-size: 12px; font-weight: 200;" x="133.17937486171724" y="0" dx="0em" dy="0.95em" fill="rgb(50, 49, 63)" stroke="none" stroke-width="1px">0</text><text style="text-anchor: middle; visibility: inherit; font-family: &quot;Helvetica Neue&quot;, sans-serif; font-size: 12px; font-weight: 200;" x="266.35874972343447" y="0" dx="0em" dy="0.95em" fill="rgb(50, 49, 63)" stroke="none" stroke-width="1px">20</text><text style="text-anchor: middle; visibility: inherit; font-family: &quot;Helvetica Neue&quot;, sans-serif; font-size: 12px; font-weight: 200;" x="399.5381245851517" y="0" dx="0em" dy="0.95em" fill="rgb(50, 49, 63)" stroke="none" stroke-width="1px">40</text><text style="text-anchor: middle; visibility: inherit; font-family: &quot;Helvetica Neue&quot;, sans-serif; font-size: 12px; font-weight: 200;" x="532.7174994468689" y="0" dx="0em" dy="0.95em" fill="rgb(50, 49, 63)" stroke="none" stroke-width="1px">60</text><text style="text-anchor: middle; visibility: inherit; font-family: &quot;Helvetica Neue&quot;, sans-serif; font-size: 12px; font-weight: 200;" x="665.8968743085861" y="0" dx="0em" dy="0.95em" fill="rgb(50, 49, 63)" stroke="none" stroke-width="1px">80</text><text style="text-anchor: middle; visibility: inherit; font-family: &quot;Helvetica Neue&quot;, sans-serif; font-size: 12px; font-weight: 200;" x="799.0762491703034" y="0" dx="0em" dy="0.95em" fill="rgb(50, 49, 63)" stroke="none" stroke-width="1px">100</text><text style="text-anchor: middle; visibility: inherit; font-family: &quot;Helvetica Neue&quot;, sans-serif; font-size: 12px; font-weight: 200;" x="932.2556240320207" y="0" dx="0em" dy="0.95em" fill="rgb(50, 49, 63)" stroke="none" stroke-width="1px">120</text><text style="text-anchor: middle; visibility: hidden; font-family: &quot;Helvetica Neue&quot;, sans-serif; font-size: 12px; font-weight: 200;" x="1065.4349988937379" y="0" dx="0em" dy="0.95em" fill="rgb(50, 49, 63)" stroke="none" stroke-width="1px">140</text></g><line x1="0" y1="0" x2="1065.4349988937379" y2="0" fill="rgb(0, 0, 0)" stroke="rgb(204, 204, 204)" stroke-width="1px"></line></g></g></g></g></svg>