<svg viewBox="0 0 1129.4000244140625 400" xmlns="http://www.w3.org/2000/svg"><g><g><g><g><g><line x1="53.172000885009766" y1="376.6879997253418" x2="48.172000885009766" y2="376.6879997253418" style="visibility: inherit;" fill="rgb(0, 0, 0)" stroke="rgb(204, 204, 204)" stroke-width="1px"></line><line x1="53.172000885009766" y1="345.2973330815633" x2="48.172000885009766" y2="345.2973330815633" style="visibility: inherit;" fill="rgb(0, 0, 0)" stroke="rgb(204, 204, 204)" stroke-width="1px"></line><line x1="53.172000885009766" y1="313.9066664377848" x2="48.172000885009766" y2="313.9066664377848" style="visibility: inherit;" fill="rgb(0, 0, 0)" stroke="rgb(204, 204, 204)" stroke-width="1px"></line><line x1="53.172000885009766" y1="282.51599979400646" x2="48.172000885009766" y2="282.51599979400646" style="visibility: inherit;" fill="rgb(0, 0, 0)" stroke="rgb(204, 204, 204)" stroke-width="1px"></line><line x1="53.172000885009766" y1="251.1253331502279" x2="48.172000885009766" y2="251.1253331502279" style="visibility: inherit;" fill="rgb(0, 0, 0)" stroke="rgb(204, 204, 204)" stroke-width="1px"></line><line x1="53.172000885009766" y1="219.73466650644943" x2="48.172000885009766" y2="219.73466650644943" style="visibility: inherit;" fill="rgb(0, 0, 0)" stroke="rgb(204, 204, 204)" stroke-width="1px"></line><line x1="53.172000885009766" y1="188.3439998626709" x2="48.172000885009766" y2="188.3439998626709" style="visibility: inherit;" fill="rgb(0, 0, 0)" stroke="rgb(204, 204, 204)" stroke-width="1px"></line><line x1="53.172000885009766" y1="156.9533332188924" x2="48.172000885009766" y2="156.9533332188924" style="visibility: inherit;" fill="rgb(0, 0, 0)" stroke="rgb(204, 204, 204)" stroke-width="1px"></line><line x1="53.172000885009766" y1="125.56266657511387" x2="48.172000885009766" y2="125.56266657511387" style="visibility: inherit;" fill="rgb(0, 0, 0)" stroke="rgb(204, 204, 204)" stroke-width="1px"></line><line x1="53.172000885009766" y1="94.1719999313355" x2="48.172000885009766" y2="94.1719999313355" style="visibility: inherit;" fill="rgb(0, 0, 0)" stroke="rgb(204, 204, 204)" stroke-width="1px"></line><line x1="53.172000885009766" y1="62.78133328755706" x2="48.172000885009766" y2="62.78133328755706" style="visibility: inherit;" fill="rgb(0, 0, 0)" stroke="rgb(204, 204, 204)" stroke-width="1px"></line><line x1="53.172000885009766" y1="31.390666643778502" x2="48.172000885009766" y2="31.390666643778502" style="visibility: inherit;" fill="rgb(0, 0, 0)" stroke="rgb(204, 204, 204)" stroke-width="1px"></line><line x1="53.172000885009766" y1="0" x2="48.172000885009766" y2="0" style="visibility: inherit;" fill="rgb(0, 0, 0)" stroke="rgb(204, 204, 204)" stroke-width="1px"></line></g><g transform="translate(43.172000885009766, 0)"><text style="text-anchor: end; visibility: hidden; font-family: &quot;Helvetica Neue&quot;, sans-serif; font-size: 12px; font-weight: 200;" x="0" y="376.6879997253418" dx="0em" dy="0.3em" fill="rgb(50, 49, 63)" stroke="none" stroke-width="1px">0.76</text><text style="text-anchor: end; visibility: inherit; font-family: &quot;Helvetica Neue&quot;, sans-serif; font-size: 12px; font-weight: 200;" x="0" y="345.2973330815633" dx="0em" dy="0.3em" fill="rgb(50, 49, 63)" stroke="none" stroke-width="1px">0.78</text><text style="text-anchor: end; visibility: inherit; font-family: &quot;Helvetica Neue&quot;, sans-serif; font-size: 12px; font-weight: 200;" x="0" y="313.9066664377848" dx="0em" dy="0.3em" fill="rgb(50, 49, 63)" stroke="none" stroke-width="1px">0.8</text><text style="text-anchor: end; visibility: inherit; font-family: &quot;Helvetica Neue&quot;, sans-serif; font-size: 12px; font-weight: 200;" x="0" y="282.51599979400646" dx="0em" dy="0.3em" fill="rgb(50, 49, 63)" stroke="none" stroke-width="1px">0.82</text><text style="text-anchor: end; visibility: inherit; font-family: &quot;Helvetica Neue&quot;, sans-serif; font-size: 12px; font-weight: 200;" x="0" y="251.1253331502279" dx="0em" dy="0.3em" fill="rgb(50, 49, 63)" stroke="none" stroke-width="1px">0.84</text><text style="text-anchor: end; visibility: inherit; font-family: &quot;Helvetica Neue&quot;, sans-serif; font-size: 12px; font-weight: 200;" x="0" y="219.73466650644943" dx="0em" dy="0.3em" fill="rgb(50, 49, 63)" stroke="none" stroke-width="1px">0.86</text><text style="text-anchor: end; visibility: inherit; font-family: &quot;Helvetica Neue&quot;, sans-serif; font-size: 12px; font-weight: 200;" x="0" y="188.3439998626709" dx="0em" dy="0.3em" fill="rgb(50, 49, 63)" stroke="none" stroke-width="1px">0.88</text><text style="text-anchor: end; visibility: inherit; font-family: &quot;Helvetica Neue&quot;, sans-serif; font-size: 12px; font-weight: 200;" x="0" y="156.9533332188924" dx="0em" dy="0.3em" fill="rgb(50, 49, 63)" stroke="none" stroke-width="1px">0.9</text><text style="text-anchor: end; visibility: inherit; font-family: &quot;Helvetica Neue&quot;, sans-serif; font-size: 12px; font-weight: 200;" x="0" y="125.56266657511387" dx="0em" dy="0.3em" fill="rgb(50, 49, 63)" stroke="none" stroke-width="1px">0.92</text><text style="text-anchor: end; visibility: inherit; font-family: &quot;Helvetica Neue&quot;, sans-serif; font-size: 12px; font-weight: 200;" x="0" y="94.1719999313355" dx="0em" dy="0.3em" fill="rgb(50, 49, 63)" stroke="none" stroke-width="1px">0.94</text><text style="text-anchor: end; visibility: inherit; font-family: &quot;Helvetica Neue&quot;, sans-serif; font-size: 12px; font-weight: 200;" x="0" y="62.78133328755706" dx="0em" dy="0.3em" fill="rgb(50, 49, 63)" stroke="none" stroke-width="1px">0.96</text><text style="text-anchor: end; visibility: inherit; font-family: &quot;Helvetica Neue&quot;, sans-serif; font-size: 12px; font-weight: 200;" x="0" y="31.390666643778502" dx="0em" dy="0.3em" fill="rgb(50, 49, 63)" stroke="none" stroke-width="1px">0.98</text><text style="text-anchor: end; visibility: hidden; font-family: &quot;Helvetica Neue&quot;, sans-serif; font-size: 12px; font-weight: 200;" x="0" y="0" dx="0em" dy="0.3em" fill="rgb(50, 49, 63)" stroke="none" stroke-width="1px">1</text></g><line x1="53.172000885009766" y1="0" x2="53.172000885009766" y2="376.6879997253418" fill="rgb(0, 0, 0)" stroke="rgb(204, 204, 204)" stroke-width="1px"></line></g></g><g transform="translate(53, 0)" clip-path="url(#clip_0)"><clipPath id="clip_0"><rect width="1076" height="376"></rect></clipPath><g><g><g><line x1="0" y1="0" x2="0" y2="376.6879997253418" fill="rgb(0, 0, 0)" stroke="rgb(60, 60, 60)" stroke-width="1px" opacity="0.25"></line><line x1="134.5284998893738" y1="0" x2="134.5284998893738" y2="376.6879997253418" fill="rgb(0, 0, 0)" stroke="rgb(60, 60, 60)" stroke-width="1px" opacity="0.25"></line><line x1="269.0569997787476" y1="0" x2="269.0569997787476" y2="376.6879997253418" fill="rgb(0, 0, 0)" stroke="rgb(60, 60, 60)" stroke-width="1px" opacity="0.25"></line><line x1="403.5854996681214" y1="0" x2="403.5854996681214" y2="376.6879997253418" fill="rgb(0, 0, 0)" stroke="rgb(60, 60, 60)" stroke-width="1px" opacity="0.25"></line><line x1="538.1139995574952" y1="0" x2="538.1139995574952" y2="376.6879997253418" fill="rgb(0, 0, 0)" stroke="rgb(60, 60, 60)" stroke-width="1px" opacity="0.25"></line><line x1="672.6424994468689" y1="0" x2="672.6424994468689" y2="376.6879997253418" fill="rgb(0, 0, 0)" stroke="rgb(60, 60, 60)" stroke-width="1px" opacity="0.25"></line><line x1="807.1709993362427" y1="0" x2="807.1709993362427" y2="376.6879997253418" fill="rgb(0, 0, 0)" stroke="rgb(60, 60, 60)" stroke-width="1px" opacity="0.25"></line><line x1="941.6994992256166" y1="0" x2="941.6994992256166" y2="376.6879997253418" fill="rgb(0, 0, 0)" stroke="rgb(60, 60, 60)" stroke-width="1px" opacity="0.25"></line><line x1="1076.2279991149903" y1="0" x2="1076.2279991149903" y2="376.6879997253418" fill="rgb(0, 0, 0)" stroke="rgb(60, 60, 60)" stroke-width="1px" opacity="0.25"></line></g><g><line x1="0" y1="376.6879997253418" x2="1076.2279991149903" y2="376.6879997253418" fill="rgb(0, 0, 0)" stroke="rgb(60, 60, 60)" stroke-width="1px" opacity="0.25"></line><line x1="0" y1="345.2973330815633" x2="1076.2279991149903" y2="345.2973330815633" fill="rgb(0, 0, 0)" stroke="rgb(60, 60, 60)" stroke-width="1px" opacity="0.25"></line><line x1="0" y1="313.9066664377848" x2="1076.2279991149903" y2="313.9066664377848" fill="rgb(0, 0, 0)" stroke="rgb(60, 60, 60)" stroke-width="1px" opacity="0.25"></line><line x1="0" y1="282.51599979400646" x2="1076.2279991149903" y2="282.51599979400646" fill="rgb(0, 0, 0)" stroke="rgb(60, 60, 60)" stroke-width="1px" opacity="0.25"></line><line x1="0" y1="251.1253331502279" x2="1076.2279991149903" y2="251.1253331502279" fill="rgb(0, 0, 0)" stroke="rgb(60, 60, 60)" stroke-width="1px" opacity="0.25"></line><line x1="0" y1="219.73466650644943" x2="1076.2279991149903" y2="219.73466650644943" fill="rgb(0, 0, 0)" stroke="rgb(60, 60, 60)" stroke-width="1px" opacity="0.25"></line><line x1="0" y1="188.3439998626709" x2="1076.2279991149903" y2="188.3439998626709" fill="rgb(0, 0, 0)" stroke="rgb(60, 60, 60)" stroke-width="1px" opacity="0.25"></line><line x1="0" y1="156.9533332188924" x2="1076.2279991149903" y2="156.9533332188924" fill="rgb(0, 0, 0)" stroke="rgb(60, 60, 60)" stroke-width="1px" opacity="0.25"></line><line x1="0" y1="125.56266657511387" x2="1076.2279991149903" y2="125.56266657511387" fill="rgb(0, 0, 0)" stroke="rgb(60, 60, 60)" stroke-width="1px" opacity="0.25"></line><line x1="0" y1="94.1719999313355" x2="1076.2279991149903" y2="94.1719999313355" fill="rgb(0, 0, 0)" stroke="rgb(60, 60, 60)" stroke-width="1px" opacity="0.25"></line><line x1="0" y1="62.78133328755706" x2="1076.2279991149903" y2="62.78133328755706" fill="rgb(0, 0, 0)" stroke="rgb(60, 60, 60)" stroke-width="1px" opacity="0.25"></line><line x1="0" y1="31.390666643778502" x2="1076.2279991149903" y2="31.390666643778502" fill="rgb(0, 0, 0)" stroke="rgb(60, 60, 60)" stroke-width="1px" opacity="0.25"></line><line x1="0" y1="0" x2="1076.2279991149903" y2="0" fill="rgb(0, 0, 0)" stroke="rgb(60, 60, 60)" stroke-width="1px" opacity="0.25"></line></g></g></g><g><g><line x1="0" y1="1569.5333321889243" x2="1076.2279991149903" y2="1569.5333321889243" fill="rgb(0, 0, 0)" stroke="rgb(153, 153, 153)" stroke-width="1.5px"></line></g></g><g><g><line x1="134.5284998893738" y1="0" x2="134.5284998893738" y2="376.6879997253418" fill="rgb(0, 0, 0)" stroke="rgb(153, 153, 153)" stroke-width="1.5px"></line></g></g><g><g><g><g><g><path style="fill: none;" stroke="rgb(255, 112, 67)" stroke-width="2px" d="M174.88704985618594,378.1699291826575L181.61347485065463,341.95240133976637L188.33989984512328,308.7788067796129L195.066324839592,280.15083027276063L201.7927498340607,255.2124183600218L208.51917482852937,236.97741864622373L215.2455998229981,219.70272277790696L221.97202481746675,205.58222665524588L228.69844981193543,195.2090232064302L235.42487480640415,185.14948434757886L242.15129980087283,178.07279677007625L248.87772479534152,170.9737350724398L255.60414978981018,163.89263184315206L262.3305747842789,158.23983757317518L269.0569997787476,152.82224435212288L275.78342477321627,149.93532678309046L282.50984976768495,145.86192927989504L289.23627476215364,143.48958608879275L295.9626997566224,142.88170296179567L302.689124751091,138.09197749940537L309.4155497455597,133.82569096157968L316.14197474002845,132.7853883366701L322.8683997344971,133.10888448437842L329.5948247289658,129.71610484472103L336.32124972343445,126.35773194940427L343.04767471790313,124.78505754861837L349.7740997123719,121.70092024257343L356.5005247068405,121.44885862374466L363.22694970130925,120.02142979865056L369.95337469577794,122.02469154014904L376.67979969024657,118.9365648989538L383.4062246847153,117.13854752091527L390.132649679184,116.10935680465434L396.8590746736527,113.51045951641572L403.5854996681214,113.97235693548004L410.31192466259006,113.62531993329208L417.03834965705875,111.66001389540156L423.76477465152743,107.94300323244647L430.4911996459962,108.54029666848487L437.2176246404648,109.7527602920689L443.9440496349335,108.19200676581312L450.67047462940224,107.16649364427366L457.39689962387087,105.83143813000152L464.1233246183396,105.64889234441199L470.8497496128083,105.1990246007195L477.5761746072769,102.45934496886849L484.30259960174567,102.38027918952781L491.0290245962143,99.79112094039368L497.75544959068304,98.56288576520512L504.48187458515173,96.04420065491621L511.20829957962036,93.9830940085348L517.9347245740892,94.91993018982981L524.6611495685578,93.67259665631934L531.3875745630265,92.4796024982096L538.1139995574952,91.80556738255558L544.8404245519638,91.99950155831692L551.5668495464325,90.53416853643404L558.2932745409013,91.70389574601569L565.0196995353699,91.37752650133962L571.7461245298387,88.87322871478773L578.4725495243073,88.54172742854064L585.1989745187759,88.41452450855724L591.9253995132448,87.69782418806659L598.6518245077134,87.97849585418157L605.378249502182,86.41993859344694L612.1046744966508,87.55794238189515L618.8310994911194,87.43829750817986L625.5575244855881,88.34891335136928L632.2839494800569,87.65359281696414L639.0103744745255,87.18139222800477L645.7367994689941,86.68013435444311L652.4632244634629,84.68823087519405L659.1896494579316,84.66940505602577L665.9160744524003,85.7073080863276L672.6424994468689,85.1894703002377L679.3689244413376,84.5043371981265L686.0953494358063,82.88026888960133L692.821774430275,81.64485670500511L699.5481994247438,80.59417852982097L706.2746244192124,80.60983812299577L713.001049413681,80.84035214929577L719.7274744081498,80.01481841063975L726.4538994026185,78.7360232601423L733.1803243970871,80.93264405554834L739.9067493915559,81.19674043715293L746.6331743860245,81.73550372931135L753.3595993804931,81.34780790206241L760.086024374962,80.84785770581442L766.8124493694306,78.81194638589608L773.5388743638993,78.5589193222172L780.265299358368,76.27068672026223L786.9917243528366,77.08071473765693L793.7181493473054,77.08247168395775L800.4445743417741,78.05447791840527L807.1709993362427,75.46501429790243L813.8974243307114,73.20895163832506L820.6238493251801,71.43972096236098L827.3502743196489,71.52445009083863L834.0766993141175,71.26091718552755L840.8031243085862,68.33341178704967L847.5295493030549,69.5306654535903L854.2559742975235,70.77930484420091L860.9823992919924,71.25412070761865L867.708824286461,70.53965593066744L874.4352492809296,69.96234247827078L881.1616742753984,71.09268317728373L887.888099269867,71.17204588385846L894.6145242643357,69.85482230351954L901.3409492588045,68.91435674546256L908.0673742532731,68.66691755201174L914.7937992477417,67.92728354420007L921.5202242422105,66.08767768613683L928.2466492366792,67.20385329346976L934.9730742311478,67.20451591689971L941.6994992256166,67.79514846793165L948.4259242200852,67.74538561908452L955.1523492145539,67.99943793135134L961.8787742090226,66.36492385142964L968.6051992034913,65.21683310131431L975.33162419796,65.61354998719986L982.0580491924286,67.08481310555374L988.7844741868973,66.83103279608991L995.5108991813661,66.06076355514455L1002.2373241758347,66.96374257958678L1008.9637491703035,67.2283182584111L1015.6901741647721,66.86598194032928L1022.4165991592407,66.8255421228593" fill="none"></path></g></g></g></g><g opacity="0.2"><g><g><g><path style="fill: none;" stroke="rgb(255, 112, 67)" stroke-width="2px" d="M168.16062486171722,377.1406167379894L174.88704985618594,326.3028732543205L181.61347485065463,290.16075704398645L188.33989984512328,260.41138744440104L195.066324839592,237.93012562331057L201.7927498340607,218.18178309188266L208.51917482852937,209.7903091808348L215.2455998229981,193.88468710749675L221.97202481746675,184.44758834105716L228.69844981193543,179.66954021863825L235.42487480640415,170.07200066960974L242.15129980087283,167.46275643218195L248.87772479534152,160.3281466109782L255.60414978981018,153.2727748905633L262.3305747842789,149.76150731452168L269.0569997787476,144.69634971002375L275.78342477321627,145.60510875496203L282.50984976768495,139.75196706198193L289.23627476215364,139.93111813991658L295.9626997566224,141.96988547225544L302.689124751091,130.90742334913915L309.4155497455597,127.42627934860406L316.14197474002845,131.2249370611549L322.8683997344971,133.59412820929793L329.5948247289658,124.62693851046441L336.32124972343445,121.32017446255077L343.04767471790313,122.42604646895546L349.7740997123719,117.07471489714578L356.5005247068405,121.07076622559322L363.22694970130925,117.88028666325278L369.95337469577794,125.02958406630285L376.67979969024657,114.30437501679194L383.4062246847153,114.44152148167558L390.132649679184,114.56557073981725L396.8590746736527,109.6121135985328L403.5854996681214,114.66520306253284L410.31192466259006,113.10476443070553L417.03834965705875,108.71205484093025L423.76477465152743,102.36748724069668L430.4911996459962,109.43623682228366L437.2176246404648,111.57145572712938L443.9440496349335,105.85087647667325L450.67047462940224,105.62822396206002L457.39689962387087,103.82885485866876L464.1233246183396,105.37507366603336L470.8497496128083,104.52422298518985L477.5761746072769,98.34982552112496L484.30259960174567,102.26168052051702L491.0290245962143,95.90738356670369L497.75544959068304,96.72053300242567L504.48187458515173,92.2661729894865L511.20829957962036,90.89143403896475L517.9347245740892,96.32518446177204L524.6611495685578,91.80159635605395L531.3875745630265,90.69011126104556L538.1139995574952,90.79451470907429L544.8404245519638,92.2904028219591L551.5668495464325,88.3361690036092L558.2932745409013,93.45848656038811L565.0196995353699,90.88797263432582L571.7461245298387,85.11678203495973L578.4725495243073,88.04447549917046L585.1989745187759,88.22372012858182L591.9253995132448,86.62277370733119L598.6518245077134,88.39950335335419L605.378249502182,84.0821027023452L612.1046744966508,89.2649480645673L618.8310994911194,87.25883019760658L625.5575244855881,89.71483711615349L632.2839494800569,86.61061201535648L639.0103744745255,86.47309134456594L645.7367994689941,85.9282475441006L652.4632244634629,81.70037565632055L659.1896494579316,84.64116632727325L665.9160744524003,87.2641626317801L672.6424994468689,84.41271362110285L679.3689244413376,83.47663754495994L686.0953494358063,80.44416642681352L692.821774430275,79.79173842811065L699.5481994247438,79.01816126704472L706.2746244192124,80.63332751275806L713.001049413681,81.18612318874528L719.7274744081498,78.77651780265563L726.4538994026185,76.81783053439614L733.1803243970871,84.22757524865762L739.9067493915559,81.59288500955978L746.6331743860245,82.54364866754901L753.3595993804931,80.76626416118887L760.086024374962,80.09793241144223L766.8124493694306,75.75807940601845L773.5388743638993,78.17937872669916L780.265299358368,72.83833781732955L786.9917243528366,78.29575676374913L793.7181493473054,77.08510710340875L800.4445743417741,79.5124872700768L807.1709993362427,71.58081886714837L813.8974243307114,69.82485764895898L820.6238493251801,68.78587494841497L827.3502743196489,71.65154378355493L834.0766993141175,70.86561782756081L840.8031243085862,63.94215368933277L847.5295493030549,71.32654595340097L854.2559742975235,72.65226393011704L860.9823992919924,71.96634450274547L867.708824286461,69.46795876524067L874.4352492809296,69.09637229967603L881.1616742753984,72.78819422580324L887.888099269867,71.29108994372092L894.6145242643357,67.87898693301128L901.3409492588045,67.50365840837748L908.0673742532731,68.29575876183566L914.7937992477417,66.81783253248267L921.5202242422105,63.32826889904197L928.2466492366792,68.87811670446905L934.9730742311478,67.20550985204454L941.6994992256166,68.68109729447934L948.4259242200852,67.67074134581418L955.1523492145539,68.38051639975146L961.8787742090226,63.91315273154703L968.6051992034913,63.49469697614154L975.33162419796,66.20862531602825L982.0580491924286,69.29170778308463L988.7844741868973,66.45036233189404L995.5108991813661,64.9053596937269L1002.2373241758347,68.31821111625044L1008.9637491703035,67.62518177664748L1015.6901741647721,66.32247746320655L1022.4165991592407,66.76488239665446" fill="none"></path></g></g></g></g></g><g><g opacity="0.000766657"><span fill="rgb(0, 0, 0)" stroke="none" stroke-width="1px">Alt + Scroll to Zoom</span></g></g></g><g transform="translate(53, 376)" clip-path="url(#clip_1)"><clipPath id="clip_1"><rect width="1076" height="23"></rect></clipPath><g><g><line x1="0" y1="0" x2="0" y2="5" style="visibility: inherit;" fill="rgb(0, 0, 0)" stroke="rgb(204, 204, 204)" stroke-width="1px"></line><line x1="134.5284998893738" y1="0" x2="134.5284998893738" y2="5" style="visibility: inherit;" fill="rgb(0, 0, 0)" stroke="rgb(204, 204, 204)" stroke-width="1px"></line><line x1="269.0569997787476" y1="0" x2="269.0569997787476" y2="5" style="visibility: inherit;" fill="rgb(0, 0, 0)" stroke="rgb(204, 204, 204)" stroke-width="1px"></line><line x1="403.5854996681214" y1="0" x2="403.5854996681214" y2="5" style="visibility: inherit;" fill="rgb(0, 0, 0)" stroke="rgb(204, 204, 204)" stroke-width="1px"></line><line x1="538.1139995574952" y1="0" x2="538.1139995574952" y2="5" style="visibility: inherit;" fill="rgb(0, 0, 0)" stroke="rgb(204, 204, 204)" stroke-width="1px"></line><line x1="672.6424994468689" y1="0" x2="672.6424994468689" y2="5" style="visibility: inherit;" fill="rgb(0, 0, 0)" stroke="rgb(204, 204, 204)" stroke-width="1px"></line><line x1="807.1709993362427" y1="0" x2="807.1709993362427" y2="5" style="visibility: inherit;" fill="rgb(0, 0, 0)" stroke="rgb(204, 204, 204)" stroke-width="1px"></line><line x1="941.6994992256166" y1="0" x2="941.6994992256166" y2="5" style="visibility: inherit;" fill="rgb(0, 0, 0)" stroke="rgb(204, 204, 204)" stroke-width="1px"></line><line x1="1076.2279991149903" y1="0" x2="1076.2279991149903" y2="5" style="visibility: inherit;" fill="rgb(0, 0, 0)" stroke="rgb(204, 204, 204)" stroke-width="1px"></line></g><g transform="translate(0, 8)"><text style="text-anchor: middle; visibility: hidden; font-family: &quot;Helvetica Neue&quot;, sans-serif; font-size: 12px; font-weight: 200;" x="0" y="0" dx="0em" dy="0.95em" fill="rgb(50, 49, 63)" stroke="none" stroke-width="1px">-20</text><text style="text-anchor: middle; visibility: inherit; font-family: &quot;Helvetica Neue&quot;, sans-serif; font-size: 12px; font-weight: 200;" x="134.5284998893738" y="0" dx="0em" dy="0.95em" fill="rgb(50, 49, 63)" stroke="none" stroke-width="1px">0</text><text style="text-anchor: middle; visibility: inherit; font-family: &quot;Helvetica Neue&quot;, sans-serif; font-size: 12px; font-weight: 200;" x="269.0569997787476" y="0" dx="0em" dy="0.95em" fill="rgb(50, 49, 63)" stroke="none" stroke-width="1px">20</text><text style="text-anchor: middle; visibility: inherit; font-family: &quot;Helvetica Neue&quot;, sans-serif; font-size: 12px; font-weight: 200;" x="403.5854996681214" y="0" dx="0em" dy="0.95em" fill="rgb(50, 49, 63)" stroke="none" stroke-width="1px">40</text><text style="text-anchor: middle; visibility: inherit; font-family: &quot;Helvetica Neue&quot;, sans-serif; font-size: 12px; font-weight: 200;" x="538.1139995574952" y="0" dx="0em" dy="0.95em" fill="rgb(50, 49, 63)" stroke="none" stroke-width="1px">60</text><text style="text-anchor: middle; visibility: inherit; font-family: &quot;Helvetica Neue&quot;, sans-serif; font-size: 12px; font-weight: 200;" x="672.6424994468689" y="0" dx="0em" dy="0.95em" fill="rgb(50, 49, 63)" stroke="none" stroke-width="1px">80</text><text style="text-anchor: middle; visibility: inherit; font-family: &quot;Helvetica Neue&quot;, sans-serif; font-size: 12px; font-weight: 200;" x="807.1709993362427" y="0" dx="0em" dy="0.95em" fill="rgb(50, 49, 63)" stroke="none" stroke-width="1px">100</text><text style="text-anchor: middle; visibility: inherit; font-family: &quot;Helvetica Neue&quot;, sans-serif; font-size: 12px; font-weight: 200;" x="941.6994992256166" y="0" dx="0em" dy="0.95em" fill="rgb(50, 49, 63)" stroke="none" stroke-width="1px">120</text><text style="text-anchor: middle; visibility: hidden; font-family: &quot;Helvetica Neue&quot;, sans-serif; font-size: 12px; font-weight: 200;" x="1076.2279991149903" y="0" dx="0em" dy="0.95em" fill="rgb(50, 49, 63)" stroke="none" stroke-width="1px">140</text></g><line x1="0" y1="0" x2="1076.2279991149903" y2="0" fill="rgb(0, 0, 0)" stroke="rgb(204, 204, 204)" stroke-width="1px"></line></g></g></g></g></svg>